<?xml version="1.0" encoding="UTF-8"?>
<svg width="20px" height="20px" viewBox="0 0 20 20" version="1.1" xmlns="http://www.w3.org/2000/svg" xmlns:xlink="http://www.w3.org/1999/xlink">
    <!-- Generator: Sketch 47 (45396) - http://www.bohemiancoding.com/sketch -->
    <title>icon / review / full</title>
    <desc>Created with Sketch.</desc>
    <defs>
        <polygon id="path-1" points="1.39397422e-20 2.48344147e-05 1.39397422e-20 17.3579657 17.9855126 17.3579657 17.9855126 2.48344147e-05 0 2.48344147e-05"></polygon>
    </defs>
    <g id="Icon" stroke="none" stroke-width="1" fill="none" fill-rule="evenodd">
        <g id="icon-/-review-/-full">
            <g id="Page-1" transform="translate(1.000000, 1.000000)">
                <mask id="mask-2" fill="white">
                    <use xlink:href="#path-1"></use>
                </mask>
                <g id="Clip-2"></g>
                <path d="M17.8000971,7.15453714 L13.8863829,10.7545371 C13.6981543,10.9283657 13.6143257,11.1875657 13.66524,11.4385371 L14.7349543,16.6842514 C14.7771257,16.8971657 14.6932971,17.1152229 14.51844,17.2448229 C14.3435829,17.37288 14.1095829,17.3852229 13.9223829,17.27568 L9.32466857,14.6219657 C9.10455429,14.4969943 8.83506857,14.4969943 8.61495429,14.6219657 L4.02752571,17.2859657 C3.94524,17.3348229 3.85061143,17.3600229 3.75444,17.3579657 C3.63769714,17.3574514 3.52455429,17.3199086 3.43095429,17.2499657 C3.25609714,17.12088 3.17226857,16.9023086 3.21495429,16.6893943 C3.69324,14.3391086 4.24352571,11.7008229 4.28466857,11.4693943 C4.35152571,11.21688 4.27849714,10.9489371 4.09438286,10.7648229 L0.180668571,7.16482286 C0.0207257143,7.01722286 -0.0394457143,6.79093714 0.0258685714,6.58368 C0.0772971429,6.36973714 0.25164,6.20773714 0.468668571,6.17225143 L5.72981143,5.60653714 C5.98181143,5.57413714 6.19781143,5.41213714 6.30066857,5.17968 L8.48072571,0.299108571 C8.62832571,0.0234514286 8.97135429,-0.0804342857 9.24649714,0.0671657143 C9.34575429,0.119622857 9.42598286,0.200365714 9.47844,0.299108571 L11.6595257,5.18482286 C11.7613543,5.41676571 11.9788971,5.57722286 12.2303829,5.60653714 L17.4910114,6.17225143 C17.7075257,6.19539429 17.8895829,6.34505143 17.9543829,6.55282286 C18.02844,6.76625143 17.9677543,7.00333714 17.8000971,7.15453714" id="Fill-1" fill="#FFC107" mask="url(#mask-2)"></path>
            </g>
        </g>
    </g>
</svg>